<?xml version="1.0" standalone="no"?>
<svg xmlns:xlink="http://www.w3.org/1999/xlink" id="wave" style="transform:rotate(0deg); transition: 0.3s" viewBox="0 0 1440 180" version="1.1" xmlns="http://www.w3.org/2000/svg"><defs><linearGradient id="sw-gradient-0" x1="0" x2="0" y1="1" y2="0"><stop stop-color="rgba(243, 106, 62, 1)" offset="0%"/><stop stop-color="rgba(255, 179, 11, 1)" offset="100%"/></linearGradient></defs><path style="transform:translate(0, 0px); opacity:1" fill="url(#sw-gradient-0)" d="M0,0L60,27C120,54,240,108,360,111C480,114,600,66,720,51C840,36,960,54,1080,54C1200,54,1320,36,1440,36C1560,36,1680,54,1800,78C1920,102,2040,132,2160,135C2280,138,2400,114,2520,96C2640,78,2760,66,2880,60C3000,54,3120,54,3240,63C3360,72,3480,90,3600,84C3720,78,3840,48,3960,30C4080,12,4200,6,4320,27C4440,48,4560,96,4680,99C4800,102,4920,60,5040,42C5160,24,5280,30,5400,36C5520,42,5640,48,5760,48C5880,48,6000,42,6120,51C6240,60,6360,84,6480,99C6600,114,6720,120,6840,129C6960,138,7080,150,7200,138C7320,126,7440,90,7560,78C7680,66,7800,78,7920,78C8040,78,8160,66,8280,72C8400,78,8520,102,8580,114L8640,126L8640,180L8580,180C8520,180,8400,180,8280,180C8160,180,8040,180,7920,180C7800,180,7680,180,7560,180C7440,180,7320,180,7200,180C7080,180,6960,180,6840,180C6720,180,6600,180,6480,180C6360,180,6240,180,6120,180C6000,180,5880,180,5760,180C5640,180,5520,180,5400,180C5280,180,5160,180,5040,180C4920,180,4800,180,4680,180C4560,180,4440,180,4320,180C4200,180,4080,180,3960,180C3840,180,3720,180,3600,180C3480,180,3360,180,3240,180C3120,180,3000,180,2880,180C2760,180,2640,180,2520,180C2400,180,2280,180,2160,180C2040,180,1920,180,1800,180C1680,180,1560,180,1440,180C1320,180,1200,180,1080,180C960,180,840,180,720,180C600,180,480,180,360,180C240,180,120,180,60,180L0,180Z"/></svg>