<?xml version="1.0" standalone="no"?>
<svg xmlns:xlink="http://www.w3.org/1999/xlink" id="wave" style="transform:rotate(180deg); transition: 0.3s" viewBox="0 0 1440 120" version="1.1" xmlns="http://www.w3.org/2000/svg"><defs><linearGradient id="sw-gradient-0" x1="0" x2="0" y1="1" y2="0"><stop stop-color="#F16A3D" offset="0%"/><stop stop-color="rgba(50.409, 50.409, 50.409, 1)" offset="100%"/></linearGradient></defs><path style="transform:translate(0, 0px); opacity:1" fill="url(#sw-gradient-0)" d="M0,0L120,4C240,8,480,16,720,30C960,44,1200,64,1440,72C1680,80,1920,76,2160,62C2400,48,2640,24,2880,22C3120,20,3360,40,3600,44C3840,48,4080,36,4320,42C4560,48,4800,72,5040,82C5280,92,5520,88,5760,80C6000,72,6240,60,6480,48C6720,36,6960,24,7200,18C7440,12,7680,12,7920,24C8160,36,8400,60,8640,74C8880,88,9120,92,9360,82C9600,72,9840,48,10080,44C10320,40,10560,56,10800,68C11040,80,11280,88,11520,92C11760,96,12000,96,12240,86C12480,76,12720,56,12960,42C13200,28,13440,20,13680,22C13920,24,14160,36,14400,38C14640,40,14880,32,15120,40C15360,48,15600,72,15840,68C16080,64,16320,32,16560,18C16800,4,17040,8,17160,10L17280,12L17280,120L17160,120C17040,120,16800,120,16560,120C16320,120,16080,120,15840,120C15600,120,15360,120,15120,120C14880,120,14640,120,14400,120C14160,120,13920,120,13680,120C13440,120,13200,120,12960,120C12720,120,12480,120,12240,120C12000,120,11760,120,11520,120C11280,120,11040,120,10800,120C10560,120,10320,120,10080,120C9840,120,9600,120,9360,120C9120,120,8880,120,8640,120C8400,120,8160,120,7920,120C7680,120,7440,120,7200,120C6960,120,6720,120,6480,120C6240,120,6000,120,5760,120C5520,120,5280,120,5040,120C4800,120,4560,120,4320,120C4080,120,3840,120,3600,120C3360,120,3120,120,2880,120C2640,120,2400,120,2160,120C1920,120,1680,120,1440,120C1200,120,960,120,720,120C480,120,240,120,120,120L0,120Z"/></svg>